<svg width="512" height="512" viewBox="0 0 512 512" fill="none" xmlns="http://www.w3.org/2000/svg">

  <defs>
    <linearGradient id="grad" x1="0" y1="0" x2="512" y2="512">
      <stop offset="0%" stop-color="#5F8D6E"></stop>
      <stop offset="100%" stop-color="#86B49B"></stop>
    </linearGradient>

    <linearGradient id="leafGrad" x1="0" y1="0" x2="1" y2="1">
      <stop offset="0%" stop-color="#79A86B"></stop>
      <stop offset="100%" stop-color="#4F7C5A"></stop>
    </linearGradient>
  </defs>

  <!-- Circle -->
  <circle cx="256" cy="200" r="130" stroke="url(#grad)" stroke-width="12" stroke-linecap="round" stroke-dasharray="760 80"></circle>

  <!-- Arch -->
  <path d="M176 270V170C176 124 212 88 256 88C300 88 336 124 336 170V270" stroke="#5F8D6E" stroke-width="12" stroke-linecap="round" stroke-linejoin="round"></path>

  <!-- Door -->
  <rect x="206" y="170" width="100" height="120" rx="50" fill="#F7F6F2" stroke="#5F8D6E" stroke-width="8"></rect>

  <!-- Heart -->
  <path d="M256 190
      C248 176 226 176 226 198
      C226 214 244 226 256 238
      C268 226 286 214 286 198
      C286 176 264 176 256 190Z" fill="#5F8D6E"></path>

  <!-- Leaf Left -->
  <path d="M155 140
      C130 145 118 170 130 194
      C155 188 170 166 155 140Z" fill="url(#leafGrad)" transform="rotate(-20 150 165)"></path>

  <!-- Leaf Right -->
  <path d="M357 140
      C382 145 394 170 382 194
      C357 188 342 166 357 140Z" fill="url(#leafGrad)" transform="rotate(20 362 165)"></path>

  <!-- Stem -->
  <path d="M152 180
      C175 210 205 225 225 235" stroke="#5F8D6E" stroke-width="5" stroke-linecap="round"></path>

  <path d="M360 180
      C337 210 307 225 287 235" stroke="#5F8D6E" stroke-width="5" stroke-linecap="round"></path>

  <!-- Text -->
  <text x="256" y="390" text-anchor="middle" font-family="Poppins, Arial, sans-serif" font-size="40" font-weight="700" fill="#355E4A">
      Ruang Pulih
  </text>

  <text x="256" y="425" text-anchor="middle" font-family="Poppins, Arial, sans-serif" font-size="15" letter-spacing="2" fill="#7D8F83">
      TEMAN DALAM PROSES PEMULIHAN
  </text>

</svg>